<svg xmlns="http://www.w3.org/2000/svg" viewBox="0 0 39.16 50.42"><defs><style>.cls-1{fill:#fff;}</style></defs><title>Artboard 102_1</title><g id="Layer_20" data-name="Layer 20"><path class="cls-1" d="M6,44c-.06-1.58-.41-4.71-.5-6.08-.12-2-.63-6.07-.63-10.11a73.66,73.66,0,0,1,.28-8.28,24.93,24.93,0,0,1,1.78-7.18c1.73-4.72,7-9.93,11.84-5.77,2.21,1.89,2.8,4.82,2.62,7.85-.08,1.34-.24,2.59-.44,3.94a22.36,22.36,0,0,1-1.59,5.12c-.65,1.43-.09,3.71,1.84,3.05a3.65,3.65,0,0,0,.66-.29,0,0,0,0,0,0,0c1.24-.73,1.72-2.05,2.93-3a6.71,6.71,0,0,1,6.77-1c2.14.87,2.69,3.06,2.65,5.13,0,2.39-1.91,4.17-3.61,5.7a25.71,25.71,0,0,1-5.92,3.5c-2.81,1.21-5.07,2.14-7.79,3.17C13.24,41.15,9.74,42.39,6,44M37.1,31.28c1.33-2.36.95-4.94.54-7.06a7.93,7.93,0,0,0-4.75-5.41c-2.11-.86-5.22-1.26-7.36-.31a5,5,0,0,0-.93.46,18,18,0,0,0,.61-4.45c-.06-4.24-.68-6.58-2.68-9.31-4-5.45-12.07-4.55-16.2.18A19.51,19.51,0,0,0,2.28,13.9,40.2,40.2,0,0,0,1.14,24.67c.05,4.11.35,8,.65,12.8.12,1.86.45,9.45.55,10a1.82,1.82,0,0,0,2.72,1.27c2.76-1.37,5.41-2.37,8.19-3.47,3.31-1.31,6.87-2.63,10.16-4,5.5-2.2,10.72-4.74,13.69-10"/></g></svg>