<?xml version="1.0" encoding="utf-8"?>
<!-- Generator: Adobe Illustrator 16.0.0, SVG Export Plug-In . SVG Version: 6.00 Build 0)  -->
<!DOCTYPE svg PUBLIC "-//W3C//DTD SVG 1.1//EN" "http://www.w3.org/Graphics/SVG/1.1/DTD/svg11.dtd">
<svg version="1.1" id="Vrstva_1" xmlns="http://www.w3.org/2000/svg" xmlns:xlink="http://www.w3.org/1999/xlink" x="0px" y="0px"
	 width="28.491px" height="37.35px" viewBox="0 0 28.491 37.35" enable-background="new 0 0 28.491 37.35" xml:space="preserve">
<line fill="none" stroke="#D83617" stroke-width="3" stroke-linecap="round" stroke-linejoin="round" stroke-miterlimit="10" x1="14.253" y1="15.432" x2="14.253" y2="35.85"/>
<path fill="none" stroke="#D83617" stroke-width="3" stroke-linecap="round" stroke-linejoin="round" stroke-miterlimit="10" d="
	M25.575,2.872c-2.07-2.061-5.707-1.765-8.122,0.661c-4.058,4.076-3.102,10.614-3.102,10.614l0.001,0.001
	c0,0,6.535,0.958,10.607-3.102c2.426-2.417,2.721-6.056,0.661-8.129L25.575,2.872z"/>
<path fill="none" stroke="#D83617" stroke-width="3" stroke-linecap="round" stroke-linejoin="round" stroke-miterlimit="10" d="
	M2.872,2.926c-2.062,2.071-1.766,5.708,0.66,8.123c4.076,4.057,10.615,3.101,10.615,3.101l0.001-0.001c0,0,0.957-6.535-3.103-10.608
	c-2.417-2.424-6.056-2.72-8.129-0.66L2.872,2.926z"/>
<path fill="none" stroke="#D83617" stroke-width="3" stroke-linecap="round" stroke-linejoin="round" stroke-miterlimit="10" d="
	M2.916,25.658c2.071,2.062,5.707,1.767,8.122-0.661c4.059-4.076,3.103-10.614,3.103-10.614l-0.001-0.001
	c0,0-6.535-0.958-10.608,3.102c-2.425,2.417-2.72,6.056-0.661,8.129L2.916,25.658z"/>
<path fill="none" stroke="#D83617" stroke-width="3" stroke-linecap="round" stroke-linejoin="round" stroke-miterlimit="10" d="
	M25.619,25.604c2.063-2.071,1.767-5.708-0.66-8.123c-4.075-4.058-10.614-3.101-10.614-3.101l-0.001,0.001
	c0,0-0.957,6.534,3.102,10.607c2.417,2.424,6.056,2.72,8.129,0.66L25.619,25.604z"/>
</svg>
