<svg xmlns="http://www.w3.org/2000/svg" viewBox="0 0 774.55 441.04"><defs><style>.cls-1{fill:#fff;}.cls-2{fill:#d63618;}</style></defs><title>Artboard 107</title><g id="Layer_15" data-name="Layer 15"><path class="cls-1" d="M263.51,427.55a17.54,17.54,0,0,1-5.05-1l-1.57-.47c-1.69-.39-3.35-.69-5-1-5.3-1-9.88-1.84-14.9-5.49A46.37,46.37,0,0,1,230,412.1a37.14,37.14,0,0,0-7.27-7.43,45.21,45.21,0,0,0-6.07-4l-1.9-1.11c-3.27-1.63-4.65-3.38-6.57-5.8l-.62-.78c-2.8-3.74-6.74-6.86-10.55-9.88a74.09,74.09,0,0,1-8.84-7.78,13.94,13.94,0,0,1-3.13-4.24c-1-1.74-1.88-3.38-3.48-4.17a1.29,1.29,0,0,1-.3-.22,10,10,0,0,0-3.82-2.15,13.75,13.75,0,0,1-3.51-1.76c-4.15-3.32-6.48-8.36-8.74-13.23a62.41,62.41,0,0,0-3-6c-1.9-2.66-2.85-3-4.92-3.72-.73-.25-1.56-.54-2.57-1a12.53,12.53,0,0,1-5.28-4.4,14.47,14.47,0,0,0-2.45-2.64,10.13,10.13,0,0,0-4.55-1.86,19.05,19.05,0,0,1-4.42-1.45c-2.5-1.5-4.11-3.64-5.82-5.9-.47-.61-.94-1.24-1.44-1.87a70.64,70.64,0,0,1-6.14-9.92c-1.3-2.38-2.64-4.84-4.26-7.39-3.86-6.61-8.81-8.18-15.92-9.82-8.86-2-15.39-10.53-18.5-15.42-4.56-6.26-6.34-11.43-8.73-19.2-1.45-5.79-5.78-11.11-10-16.25-.63-.78-1.26-1.54-1.86-2.3l-.86-1.09c-3.92-5-8-10.17-6.24-17.12.89-3.57,3.17-6.36,5.37-9.05s4.39-5.38,4.93-8.64c1-4.56-4.16-12.66-8.28-16.78-2.83-3.14-6.29-5.35-9.95-7.7a62.38,62.38,0,0,1-8.36-6,62.88,62.88,0,0,1-12.31-16.4,19.68,19.68,0,0,0-2.76-3.84c-1.39-1.63-2.69-3.17-3.07-5-.45-2.26.72-4.56,1.76-6.58a14.11,14.11,0,0,0,1.12-2.53,1.17,1.17,0,0,1,.09-.24,24.69,24.69,0,0,0,.94-2.53c1-3,2.26-6.75,4.82-7.77,4-1.33,5.69,2.43,6.71,4.68.15.34.3.67.45,1a19.13,19.13,0,0,1,3.57,9.54c.07.26.14.56.21.88.62,2.78,1.35,5.31,3.44,5.66,1.5.3,2.75-1.94,3.22-3-.45-4.32,1.82-12.3,3.59-15.84,1-2.43,3.09-3.47,5.14-4.48.72-.36,1.46-.72,2.18-1.16a20.82,20.82,0,0,0,7.73-6l.08-.09c5.32-5.32,8.85-5.54,14.71-5.9l2.65-.17c2.7-.23,4.73-1.54,6.88-2.92,2.94-1.91,6-3.87,10.68-2.79a28.68,28.68,0,0,1,5.41,2.25c4.25,2.12,6.6,3.07,9.53-.18a23.28,23.28,0,0,0,2.21-2.68,15.22,15.22,0,0,1,4.31-4.39,31.07,31.07,0,0,1,7.25-3.51l1.57-.62a67.86,67.86,0,0,0,8.69-5.06,70.29,70.29,0,0,1,9.05-5.24c1.5-.6,3.11-1.19,4.67-1.76s3.14-1.14,4.55-1.7a37.74,37.74,0,0,1,6.23-2.29c1.26-.37,2.44-.72,3.52-1.15,2.53-1.13,4.34-3.4,6.27-5.8a23.73,23.73,0,0,1,5.6-5.58c4.33-2.41,8.59-3.63,13.1-4.93,1.06-.3,2.14-.61,3.24-.94l.12,0c6.56-1.19,12-2.32,16.85-5a47.29,47.29,0,0,0,7.61-5.07,49.37,49.37,0,0,1,7.92-5.28,159.47,159.47,0,0,1,31.77-11.56c3-.85,3.85-1.59,4-2.05.27-.73-.72-2.21-1.87-3.92-.52-.78-1.1-1.67-1.69-2.65-2.69-4.47-3-11.42-.66-14.29a3.66,3.66,0,0,1,4.32-1.15,15.29,15.29,0,0,1,4.79,3.14c2.68,2.26,5.44,4.61,11.4,4.26,4.71-.6,5.38.12,7.45,3.26l.45.69a24.19,24.19,0,0,1,1.93,4.42,12.06,12.06,0,0,0,1.94,4,8.59,8.59,0,0,0,2,1.21,11.18,11.18,0,0,1,2.4,1.47,4.69,4.69,0,0,1,2.17,2,4.69,4.69,0,0,0,1.2,1.39,28.06,28.06,0,0,0,9.2,1.59h.13a71.22,71.22,0,0,0,15.79-.58c6.4-.46,9.25-3.81,9.89-11.57,0-.31,0-.71,0-1.1-.08-2.39-.15-4.86,2.87-6.67,2.27-1.51,10.28-.63,11.86-.11l.15.06a4.09,4.09,0,0,1,2.23,2.1,1.68,1.68,0,0,0,.76.84,10.08,10.08,0,0,0,2.08,1,12.22,12.22,0,0,1,2.51,1.26l.17.14a31.44,31.44,0,0,0,2.87,2.1c2.94,2,4.38,3.09,4.8,3.94,1.22,2.72,1.14,5.9,1.07,9-.08,3.25-.16,6.61,1.23,9.38,2.13,3.91,4.07,3.69,8.34,3.2a47.24,47.24,0,0,1,5.54-.39c4.55,0,10.2,2.35,16.18,4.85a86.8,86.8,0,0,0,13.9,4.93l1.85.27a17.15,17.15,0,0,1,7.1,2.16,15.86,15.86,0,0,1,4.23,3.32,13.63,13.63,0,0,0,3.72,2.94l.09.06c4.63,2.89,11.31,6.17,16.15,6.71a57.81,57.81,0,0,0,11.05-.43c9-.9,19.19-1.91,24.78,6.68,6,7.93-.09,12.76-5.41,17-6.85,5.32-10.75,10.68-11.63,15.92-.94,4.71.71,5.08,4.33,5.89a19.12,19.12,0,0,1,6,2.11c3.55,2.13,6.44,5.68,9.23,9.12a57.8,57.8,0,0,0,5.85,6.5,73.56,73.56,0,0,1,7.58,8.92c6.18,8.07,12.58,16.4,21.29,14.89,6.11-.56,11-3.82,16.19-7.28a42.56,42.56,0,0,1,5.88-2.72c4.63-1.83,8-3.16,9.11-9.09.47-6.05-3.95-10.8-8.8-15-3.68-3.28-7.23-8.11-6.15-11.85.68-2.35,2.94-3.86,6.72-4.49,9.53-1.47,17.14,5.78,20,9a53.82,53.82,0,0,1,4.33,5.76c3.57,5.22,6.63,9.73,13.09,9.34h0a49.76,49.76,0,0,1,13.55,1.77,24.81,24.81,0,0,1,4.41,1.47,23.77,23.77,0,0,0,4.1,1.37c2.42.35,3.53-.25,5.53-1.32.81-.44,1.72-.93,2.88-1.43,2.47-1.64,7.14-4.09,11.19-2.65,2.28.81,3.9,2.7,4.79,5.62,2.66,8.62-2.57,11.81-8.65,14.58l-.76.36c-2.66,1.27-3.84,2.07-3.21,4,.53,1.6,2.12,2,4.47,2.5a11.69,11.69,0,0,1,3,.85c3.8,1.73,6.74,5,9.59,8.11a35.85,35.85,0,0,0,6,5.73,43.3,43.3,0,0,0,8.9,3.88l1,.41c3.06,1.33,3.09,1.35,4.61-.55a16.64,16.64,0,0,0,.89-1.81c.82-1.86,1.52-3.47,5.39-4.92a1.29,1.29,0,0,1,.21-.06c3.93-.65,6.5.14,9.88,1.83,5,2.64,10.49,4.92,15.77,7.13,7.43,3.11,15.12,6.33,22.18,10.7,6.69,3.82,8.55,10.55,10.36,17,1.58,5.71,3.21,11.61,8.13,15.74,2.23,1.79,4.73,3.45,7.14,5.06a69.29,69.29,0,0,1,10.68,8.17c4.23,3.66,9.13,12.62,7.19,18.42-1.71,5.15-10,7.07-15.57,8.34-.69.16-1.32.3-1.87.44a31.23,31.23,0,0,1-6.59,1c-3.42.26-6.66.5-9.62,2.81-3.53,2.74-5.75,8.06-7.7,12.76-.78,1.86-1.51,3.61-2.3,5.2l-.09.14c-3.79,5.43-8.17,8.91-13.24,13L692.13,306a42,42,0,0,1-5.91,3.8c-3.62,2-6.75,3.8-9.25,8.39-.67,1.85-1.3,3.73-1.91,5.55a100.15,100.15,0,0,1-5,12.85c-.59,1.18-1.14,2.41-1.68,3.6-2.08,4.65-4.24,9.45-9.08,12.36a25.85,25.85,0,0,1-2.86,1.15,18.92,18.92,0,0,0-5.57,2.73,29.62,29.62,0,0,0-3,3.82,32.24,32.24,0,0,1-3.28,4.17c-8.23,9.33-19.58,20.33-33.94,22.12a30.93,30.93,0,0,1-17.78-1.79,35.78,35.78,0,0,1-7-3.78c-3.09-2-6-3.86-9.84-4.17-6.08-.38-6.81,2.72-7.91,7.41a39.62,39.62,0,0,1-1.23,4.45,18.84,18.84,0,0,1-3.64,5.84,24.74,24.74,0,0,0-2.19,3,17.17,17.17,0,0,0-1.69,5.4,25,25,0,0,1-1.1,4.19,27.54,27.54,0,0,1-6.56,9.56c-.6.52-1.08.95-1.5,1.33-1.61,1.45-2.77,2.5-4.25,2.36s-2.52-1.26-3.87-3a13.22,13.22,0,0,1-3.7-4.39,1.13,1.13,0,0,1-.12-.51,13.53,13.53,0,0,1,.12-1.43,8.38,8.38,0,0,0,.06-2.48c-1.09-.8-5-1.82-7.06-1.82-1.36,0-2.6,0-3.69.09-5.42.23-8.68.36-13.32-6.32-5.19-6.68-10.17-8.82-15.2-6.5-15.8,7.29-28.5,5.11-31.23,4.07a23.47,23.47,0,0,0-5.66-.06c-.95.06-1.85.11-2.6.11l-.56.05c-6.68.57-11.51,1-16.88-4.4-1.17-1-2.36-2.18-3.61-3.39-4-3.86-8.12-7.85-13.15-9.52-2.33-.7-4.73-.45-7.26-.18-3.27.34-6.65.69-10.1-1A121.75,121.75,0,0,1,394,371.9c-6.64-4-13.5-8.07-21.21-10.08-2.61-.78-5.39-.12-8.33.58-3.11.74-6.33,1.51-9.49.56l-.1,0a23.53,23.53,0,0,1-4.22-2.4,21.34,21.34,0,0,0-3.81-2.19.94.94,0,0,1-.22-.12c-.05,0-4.5-3-8.6-1.06s-4.55,4.46-5.1,8.86c-.29,2.35-.73,4.41-1.16,6.41s-.85,4-1.13,6.21c-.18,1.3-.25,2.61-.31,3.88-.13,2.68-.26,5.44-1.52,8-2.84,5-7.8,7.44-12.59,9.82-3.53,1.75-6.87,3.41-9.42,6a8.93,8.93,0,0,0-3.13,5.94c-.15.77-.32,1.64-.59,2.7-1.9,5.73-3,6.09-8.07,5.46-6.29,0-11.27,0-17.4,1.68a32.26,32.26,0,0,0-6.12,2.59c-1.23.63-2.51,1.28-4.06,1.95A8.43,8.43,0,0,1,263.51,427.55Zm-80.76-62.62c2.12,1.13,3.22,3.1,4.29,5a11.83,11.83,0,0,0,2.63,3.62l.13.13a72.16,72.16,0,0,0,8.63,7.59c3.92,3.11,8,6.32,10.94,10.27l.6.76c1.87,2.35,3,3.77,5.88,5.21.73.44,1.34.79,2,1.14a46.8,46.8,0,0,1,6.28,4.16,38.72,38.72,0,0,1,7.68,7.83,45.2,45.2,0,0,0,6.66,7.08c4.56,3.31,8.9,4.12,13.93,5.06,1.63.3,3.32.61,5.12,1,.62.17,1.15.34,1.66.49,3,.9,4.77,1.45,7.31.17,1.54-.66,2.79-1.29,4-1.91a33.85,33.85,0,0,1,6.54-2.75c6.47-1.77,11.86-1.77,18.09-1.77h.15c4.2.53,4.2.53,5.65-3.81.22-.93.39-1.77.54-2.51a11.13,11.13,0,0,1,3.75-7.12c2.82-2.82,6.48-4.64,10-6.4,4.69-2.33,9.12-4.54,11.58-8.84,1-2,1.13-4.44,1.25-7,.07-1.33.13-2.69.33-4.07.29-2.33.73-4.39,1.16-6.39s.85-4,1.13-6.21c.59-4.69,1-8.07,6.38-10.65,5-2.38,10,.62,10.79,1.16a24.28,24.28,0,0,1,4.11,2.36,21.82,21.82,0,0,0,3.76,2.17c2.55.74,5.32.09,8.24-.61,3.11-.74,6.33-1.5,9.49-.55,8,2.08,15,6.27,21.77,10.32a118.9,118.9,0,0,0,13.92,7.5c2.91,1.46,5.81,1.15,8.89.83a20.29,20.29,0,0,1,8.19.27c5.56,1.86,9.88,6,14.05,10.06,1.24,1.2,2.41,2.33,3.59,3.38,4.67,4.66,8.6,4.33,15.12,3.78l.66-.05c.77,0,1.63-.06,2.54-.12a23.51,23.51,0,0,1,6.44.15l.14,0c2.22.89,14.43,3,29.49-4,6.07-2.79,12.13-.36,18,7.22,3.95,5.7,6.12,5.61,11.37,5.4,1.11,0,2.37-.1,3.78-.1,2.18,0,7.3,1.08,8.84,2.63a1.11,1.11,0,0,1,.22.3,7.32,7.32,0,0,1,.22,3.94c0,.32-.07.64-.09.89a10.71,10.71,0,0,0,2.8,3.26,1.16,1.16,0,0,1,.4.33c1.12,1.5,1.93,2.28,2.4,2.33s1.41-.8,2.49-1.77c.44-.4.92-.84,1.47-1.31a25,25,0,0,0,6-8.76,22.05,22.05,0,0,0,1-3.76,19.23,19.23,0,0,1,2-6.13,28.38,28.38,0,0,1,2.39-3.23,16.8,16.8,0,0,0,3.24-5.14,34.63,34.63,0,0,0,1.17-4.22c1.12-4.77,2.3-9.68,10.32-9.19,4.42.37,7.72,2.48,10.91,4.53a33.88,33.88,0,0,0,6.62,3.57,28.78,28.78,0,0,0,16.59,1.67c13.68-1.71,24.62-12.35,32.63-21.43A28.86,28.86,0,0,0,646,358.9a31.46,31.46,0,0,1,3.29-4.17l.09-.08a20.71,20.71,0,0,1,6.29-3.15,22.43,22.43,0,0,0,2.52-1c4.15-2.49,6.06-6.76,8.09-11.28.55-1.21,1.11-2.47,1.72-3.69A97.92,97.92,0,0,0,672.88,323c.62-1.86,1.27-3.78,2-5.68a.77.77,0,0,1,.07-.16c2.82-5.22,6.39-7.24,10.18-9.37a39.88,39.88,0,0,0,5.6-3.6l1.33-1.06c5.11-4.07,9.14-7.29,12.74-12.4.74-1.49,1.45-3.19,2.19-5,2.07-5,4.41-10.57,8.42-13.69,3.51-2.73,7.24-3,10.86-3.29a28.33,28.33,0,0,0,6.15-.92l2-.46c4.72-1.09,12.6-2.91,13.91-6.83,1.56-4.68-2.82-12.79-6.54-16l-.06-.06a66.72,66.72,0,0,0-10.36-7.91c-2.46-1.64-5-3.33-7.33-5.2-5.48-4.61-7.21-10.86-8.89-16.9-1.76-6.34-3.41-12.32-9.32-15.69-6.94-4.3-14.54-7.48-21.89-10.56-5.32-2.23-10.82-4.53-15.93-7.2-3.37-1.69-5.42-2.09-8.34-1.63-2.86,1.09-3.26,2-4,3.65a18.46,18.46,0,0,1-1.07,2.14l-.09.13c-2.55,3.18-3.8,2.84-7.37,1.28l-.86-.37a45.57,45.57,0,0,1-9.32-4.09,37.16,37.16,0,0,1-6.5-6.13c-2.68-3-5.46-6-8.87-7.57a10.24,10.24,0,0,0-2.44-.68c-2.32-.46-5.21-1-6.2-4-1.35-4,2.25-5.74,4.4-6.76l.76-.37c6.6-3,9.38-5.53,7.45-11.83-.68-2.18-1.81-3.57-3.37-4.12-2.3-.82-5.67.07-9.24,2.45l-.18.1c-1.11.47-2,1-2.79,1.38-2.11,1.14-3.77,2-7,1.57a25.66,25.66,0,0,1-4.56-1.51,24.66,24.66,0,0,0-4.1-1.37,47.86,47.86,0,0,0-13-1.7c-7.68.46-11.43-5-15.06-10.34a49.65,49.65,0,0,0-4.14-5.52c-2.59-2.92-9.5-9.53-17.91-8.24-2.81.47-4.46,1.43-4.87,2.86-.73,2.54,2.21,6.59,5.46,9.48,5.31,4.65,10.15,9.93,9.56,17,0,0,0,.07,0,.11-1.36,7.23-5.81,9-10.53,10.87a38.89,38.89,0,0,0-5.51,2.53c-5.14,3.43-10.51,7-17.11,7.61-10,1.75-17.12-7.56-23.42-15.77a71.27,71.27,0,0,0-7.3-8.62,58.33,58.33,0,0,1-6.09-6.75c-2.66-3.28-5.42-6.67-8.63-8.6a17.59,17.59,0,0,0-5.34-1.84c-3.67-.82-7.47-1.67-6.09-8.54,1-5.8,5.16-11.64,12.47-17.32,5.95-4.76,9.38-8,4.95-13.89C476.84,79.17,468.19,80,459,80.94a60.17,60.17,0,0,1-11.52.43c-6.55-.73-14.67-5.52-17.08-7A16.35,16.35,0,0,1,426.17,71a14.14,14.14,0,0,0-3.71-2.94,14.86,14.86,0,0,0-6.31-1.89c-.62-.09-1.27-.18-2-.3a87.76,87.76,0,0,1-14.35-5.06c-5.76-2.4-11.2-4.67-15.29-4.67a46.14,46.14,0,0,0-5.28.37c-4.33.5-7.75.89-10.64-4.41-1.66-3.32-1.57-7-1.49-10.5.07-3,.13-5.74-.84-7.94a33.72,33.72,0,0,0-4-3,34.83,34.83,0,0,1-3.09-2.28,10.78,10.78,0,0,0-2-1,12.75,12.75,0,0,1-2.51-1.26,4,4,0,0,1-1.55-1.76c-.16-.34-.27-.57-1.11-1-1.92-.59-8.64-.9-9.83-.11-1.84,1.1-1.88,2.23-1.8,4.66,0,.41,0,.83,0,1.27-.5,6.09-2.32,13.07-12,13.76a72.28,72.28,0,0,1-16.2.58,30.7,30.7,0,0,1-10.12-1.8l-.21-.12A6.67,6.67,0,0,1,300,39.51c-.46-.7-.7-1-1.23-1.21a1.11,1.11,0,0,1-.45-.28,8.6,8.6,0,0,0-2-1.22,9.46,9.46,0,0,1-2.59-1.65c-1.15-1.14-1.79-2.94-2.48-4.85a23.39,23.39,0,0,0-1.71-4l-.43-.65c-1.77-2.69-1.77-2.69-5.32-2.25-6.93.41-10.35-2.47-13.09-4.79a13.67,13.67,0,0,0-4.07-2.72,1.42,1.42,0,0,0-1.78.43c-1.59,1.95-1.51,7.72.85,11.66.56.93,1.13,1.79,1.64,2.55,1.55,2.33,2.78,4.17,2.11,6-.55,1.48-2.21,2.52-5.57,3.48a157.52,157.52,0,0,0-31.35,11.4,47.36,47.36,0,0,0-7.56,5A48.93,48.93,0,0,1,217,61.75c-5.13,2.85-10.71,4-17.46,5.26l-3.2.93a56.9,56.9,0,0,0-12.57,4.69,21.85,21.85,0,0,0-5,5c-2,2.51-4.09,5.11-7.16,6.47-1.22.49-2.45.86-3.76,1.25a35.8,35.8,0,0,0-5.95,2.17c-1.53.62-3.15,1.21-4.71,1.78s-3.13,1.14-4.55,1.7A67.86,67.86,0,0,0,144,96.1a69.74,69.74,0,0,1-9,5.25l-1.65.64a29.34,29.34,0,0,0-6.74,3.25l-.1.06a13.09,13.09,0,0,0-3.7,3.82,25.93,25.93,0,0,1-2.39,2.89c-4.19,4.66-8.28,2.62-12.22.65a27.76,27.76,0,0,0-5-2.07c-3.69-.85-6.09.69-8.87,2.49-2.29,1.48-4.65,3-7.93,3.28l-2.69.18c-5.66.35-8.51.52-13.19,5.18a23,23,0,0,1-8.37,6.57c-.73.44-1.51.83-2.27,1.2-1.89.93-3.38,1.67-4.06,3.36-1.74,3.5-3.89,11.22-3.37,14.89a1.1,1.1,0,0,1-.06.57c-.77,2.05-2.87,5.35-5.89,4.74-3.76-.63-4.71-4.88-5.28-7.42-.07-.32-.13-.62-.2-.89a.36.36,0,0,1,0-.11,17,17,0,0,0-3.26-8.7l-.08-.13c-.17-.34-.34-.72-.52-1.11-1.31-2.91-2.13-4-3.82-3.47-1.51.6-2.66,4.06-3.43,6.35a27.36,27.36,0,0,1-1,2.71,16,16,0,0,1-1.27,2.89c-.87,1.7-1.85,3.62-1.56,5.09.26,1.29,1.33,2.55,2.57,4a22.05,22.05,0,0,1,3.07,4.3A60.23,60.23,0,0,0,43.5,172.33a62.48,62.48,0,0,0,8,5.76c3.63,2.32,7.38,4.72,10.38,8,3.45,3.45,10.23,12.66,8.87,18.8-.63,3.8-3.06,6.78-5.41,9.65-2.14,2.62-4.16,5.09-4.92,8.16-1.47,5.86,2.07,10.37,5.82,15.14l.85,1.08L69,241.25c4.16,5.09,8.86,10.85,10.42,17.08,2.29,7.45,3.93,12.37,8.41,18.53,2.39,3.75,8.76,12.54,17.11,14.47,7.47,1.72,13.08,3.51,17.37,10.87,1.64,2.57,3,5.07,4.32,7.48a69.4,69.4,0,0,0,5.92,9.6c.51.63,1,1.27,1.47,1.91,1.64,2.17,3.06,4,5.1,5.26a16.54,16.54,0,0,0,3.83,1.23,12.39,12.39,0,0,1,5.47,2.3,17,17,0,0,1,2.82,3,10.34,10.34,0,0,0,4.37,3.72c.95.4,1.73.68,2.43.92,2.23.78,3.71,1.3,6.09,4.63a67.52,67.52,0,0,1,3.19,6.31c2.14,4.63,4.36,9.43,8.06,12.39a11.82,11.82,0,0,0,2.92,1.42A12.44,12.44,0,0,1,182.75,364.93Zm523-73.63h0Z"/><path class="cls-2" d="M721.39,167c0,14.93-11.77,33.89-27,48.9-15-14.22-27-34-27-48.9a27,27,0,1,1,54.09,0Z"/><path class="cls-1" d="M709.93,174.63a8,8,0,0,0,.44-5.62,6.32,6.32,0,0,0-3.78-4.3,8.18,8.18,0,0,0-5.86-.25,4.3,4.3,0,0,0-.75.36,14.33,14.33,0,0,0,.49-3.54c0-3.38-.54-5.24-2.13-7.41-3.2-4.35-9.61-3.62-12.9.14a15.54,15.54,0,0,0-3.22,6.78,31.66,31.66,0,0,0-.91,8.58c0,3.27.28,6.4.51,10.19.1,1.48.36,7.52.44,7.94a1.46,1.46,0,0,0,2.17,1c2.19-1.09,4.3-1.88,6.52-2.77,2.63-1,5.47-2.09,8.09-3.14,4.37-1.75,8.53-3.77,10.89-8m-24.77,10.11c0-1.26-.33-3.76-.4-4.85-.1-1.55-.5-4.83-.5-8a58,58,0,0,1,.22-6.59,20.25,20.25,0,0,1,1.42-5.72c1.37-3.75,5.55-7.9,9.43-4.59,1.76,1.5,2.23,3.84,2.08,6.25-.06,1.07-.19,2.07-.35,3.14a17.39,17.39,0,0,1-1.27,4.08c-.52,1.13-.06,3,1.48,2.43a3,3,0,0,0,.51-.24h0c1-.59,1.37-1.64,2.33-2.37a5.36,5.36,0,0,1,5.39-.77c1.7.7,2.14,2.43,2.11,4.09,0,1.9-1.53,3.31-2.88,4.53a20.28,20.28,0,0,1-4.71,2.79c-2.24,1-4,1.7-6.2,2.52-2.9,1.11-5.69,2.1-8.68,3.36"/><path class="cls-1" d="M504.76,262.83a17.58,17.58,0,0,1-4-.51l-1.38-.35a1.53,1.53,0,0,0-.3,0,1.14,1.14,0,0,0-1.08,1c-.25.77-.59,2.3-.87,3.53l-.09.39c-.25,1.1-.5,2.11-.83,3.3a1,1,0,0,0,.17.95,1.22,1.22,0,0,0,1,.45,1.12,1.12,0,0,0,1.08-.82c.24-.8.41-1.43.55-2a12.3,12.3,0,0,0,1.82.38,11.45,11.45,0,0,0,1.91.1c.94,0,1.51-.46,1.52-1.12s-.68-1-1.21-1.08c-.27,0-.6-.07-.92-.1l-.3,0a6.51,6.51,0,0,1-2.4-.44c.07-.34.16-.68.24-1s.16-.62.23-.93c0,0,.95.17,3.29.4a8.37,8.37,0,0,0,1.85,0,1,1,0,0,0,.92-1.21c0-.4-.25-.85-1.19-.86"/><path class="cls-1" d="M517.06,270.61a2.44,2.44,0,0,1-.64-.52,1.83,1.83,0,0,1-.4-1.26,5.75,5.75,0,0,0-.48-4.44,3.37,3.37,0,0,0-2.15-1.29,3.08,3.08,0,0,0-.75-.07c-2.09,0-4.45,1.94-5.26,4.26a3.4,3.4,0,0,0,1,4,4.72,4.72,0,0,0,3.07,1,5,5,0,0,0,3.1-1.11,4,4,0,0,0,2.21,1.68,1.16,1.16,0,0,0,1.63-1.11c0-.71-.69-.77-1.3-1.15M513.2,269a2.58,2.58,0,0,1-2.79.77,1.08,1.08,0,0,1-.81-.74,2.9,2.9,0,0,1,.83-2.3,3.76,3.76,0,0,1,2.23-1.42h.11a1.41,1.41,0,0,1,.52.09c.31.12.52.52.61,1.19a3.17,3.17,0,0,1-.7,2.42"/><path class="cls-1" d="M526.34,264a6,6,0,0,0-2.71,1.42,2.39,2.39,0,0,0-.15-1,1.19,1.19,0,0,0-2.22.57c0,.77-.07,1.9-.12,2.81s-.1,1.53-.2,3c0,.38-.08,1.18-.08,1.18a1,1,0,0,0,1,1.11,1.06,1.06,0,0,0,1.24-1c0-.33.18-2.18.29-3.05a3.14,3.14,0,0,1,1.23-2,4,4,0,0,1,1.95-1.22c.48,0,.6.31.49.63-.49,1.44,1.79,2,2.28.59.67-1.93-1.06-3.43-3-3.1"/><path class="cls-1" d="M594.82,263.23c-6,3-9.12,4.53-16.15,6a20.83,20.83,0,0,1-12.13-1,2.24,2.24,0,0,1-1.16-1.55c0-.24,0-.48-.07-.71a20,20,0,0,0-.44-2.9,1.53,1.53,0,0,0-1.64-1.08,6.24,6.24,0,0,0-5,2.78,25.21,25.21,0,0,0-1.69,2.85,12.23,12.23,0,0,1-1.57,1.94,2.59,2.59,0,0,1-1.82,1,1.32,1.32,0,0,1-.34,0c-1.25-.3-1.51-1.61-1.7-2.56a4.06,4.06,0,0,0-.12-.52c-.56-2.49-2.1-3.35-3.36-3.33a3,3,0,0,0-2.15,1,2.57,2.57,0,0,0-1-1,3.92,3.92,0,0,0-2-.47,3.6,3.6,0,0,0-3.1,1.58,3.11,3.11,0,0,0-2.59-1.6,4.57,4.57,0,0,0-3.51,1.87c-.33.47-.65,1-1,1.45s-.73,1.16-1.14,1.71h0l-1.42,2.08a1.2,1.2,0,0,0,.2,1.68,1.39,1.39,0,0,0,1.81-.42l1.56-2.18,1.05-1.56c.21-.32.37-.58.5-.74a2.29,2.29,0,0,1,1.69-1.18,1.07,1.07,0,0,1,.81.36,2.37,2.37,0,0,1,.4,1.85c0,.48-.08,1.05-.12,1.53l0,.5c-.13,1.55.09,2.15.83,2.29l.24,0c.7,0,1.18-.67,1.28-1.76.12-1.43.39-3.18.47-3.51a2.15,2.15,0,0,1,1.92-1.68,1.4,1.4,0,0,1,1.27.81,3.37,3.37,0,0,1,.22,1.43c0,.22,0,.45,0,.67,0,0,.07,1.54.13,2.51a1.26,1.26,0,0,0,1.16,1.32c.78,0,1.15-.59,1.15-1.7-.07-.86-.09-2-.11-2.76,0-.37,0-.69,0-.88a1.38,1.38,0,0,1,1.49-.73c.79.21,1.12,1.74,1.33,2.66a5.15,5.15,0,0,0,.12.54,4.75,4.75,0,0,0,1.1,1.93,3.86,3.86,0,0,0,3.65,1,6.29,6.29,0,0,0,3.31-2.5,4.85,4.85,0,0,0,3.8,1.91,4,4,0,0,0,1-.16,4.06,4.06,0,0,0,2.35-1.59,2.25,2.25,0,0,0,.18-.35,15.27,15.27,0,0,0,6.6,2.06,29.66,29.66,0,0,0,8-.52,42.6,42.6,0,0,0,17.2-6.81c1.26-.84-.25-2.73-1.69-1.64m-31.64,4.85a2,2,0,0,1-1.72,1.6,3,3,0,0,1-.83,0c-.69-.11-1.3-.46-1.35-1.8a3.52,3.52,0,0,1,1.2-2.23,2.93,2.93,0,0,1,2-1.07.88.88,0,0,1,.29.05,6.51,6.51,0,0,1,.39,3.41"/><path class="cls-1" d="M494.76,261.48c-6.61-.48-10.25-.34-16.21,1.2a63.26,63.26,0,0,0-15.45,6.63c-.86.59-1.05,1.16-.83,1.65a1,1,0,0,0,1.5.61,69,69,0,0,1,13.16-6,46.77,46.77,0,0,1,5.48-1.36c3.77-.68,6.67-.76,12.38-.37,1.64.06,1.81-2.12,0-2.36"/><path class="cls-1" d="M607.47,253.3a1,1,0,0,0-.55-.71,1.35,1.35,0,0,0-.63-.17,1.52,1.52,0,0,0-1,.57.24.24,0,0,0,0,.11h0a2.7,2.7,0,0,1-2.38.77h0a2.75,2.75,0,0,1-1.53-.39,9.59,9.59,0,0,1-2.65-2.93c-.08-.15-.16-.26-.23-.37a14.06,14.06,0,0,0-2-2.62l-.11-.11.14-.06c.72-.35,3.11-1.67,3.73-3.88S600.31,239,598,238a4.63,4.63,0,0,0-2-.26H596a9.1,9.1,0,0,0-4.47,1.32l-.19,0,0-.27c.06-.45.11-.93.16-1.38s.13-1,.21-1.6c.41-2.93.92-6.62-.53-9a4.79,4.79,0,0,0-4-2.36h0A4.63,4.63,0,0,0,585,225c-1.64.85-3.41,2.94-2.51,8A129.53,129.53,0,0,0,586,246.44v0l.75,2.55v0l0,0a15.29,15.29,0,0,1-1.65,3c-.11.16-.21.31-.3.46A4.92,4.92,0,0,1,580.9,255h-.3a6.16,6.16,0,0,1-4-1.7c.22-.32.48-.69.59-.88a13.45,13.45,0,0,0,1.1-2.52,9.71,9.71,0,0,0,.37-2.88c0-3.25-3.93-4.92-5.91-2.21-1.58,2.15-1.33,5.63-.4,8a4.69,4.69,0,0,0,.44.83,5.29,5.29,0,0,1-3.29,1.38,4.8,4.8,0,0,1-3.57-1.52c-.91-.95-.85-2.67-.48-4.9.27-1.64,1-3.92,1.41-5.36.62-2.39,1.07-5.46-1.82-6.68a5,5,0,0,0-3.91,0,5.4,5.4,0,0,0-2.24,1.78,3.46,3.46,0,0,0-3.25-2.85c-2.55-.26-4.17,1.74-5.36,3.75-1.47,2.48-2.63,5.23-3.86,7.84s-2.25,5.49-4.63,6.78c-2.12,1.13-2.37-4.79-2.46-6.14-.11-1.61-.18-3.23-.24-4.84,0-.67,0-1.44-.08-2.08,0-.41-.27-1.63-1.55-1.52-.93.08-1.28.86-1.27,1.88,0,.73.13,1.6.16,2.52s.29,3.63.42,5.25c.21,2.42.29,4.86,1.87,6.76,1.43,1.72,3.65,1.1,5.3-.2,2.07-1.61,2.82-3.3,4-5.58,1.37-2.58,2.57-5.26,3.88-7.87a13,13,0,0,1,1.85-3.19,1.72,1.72,0,0,1,2-.71c2.35.75.5,7.46,0,10.32a40.62,40.62,0,0,1-1.47,4.87c-.63,1.93-1,2.5-.91,3.85s1.73,2.24,2.65-.33a76.81,76.81,0,0,0,2.39-8.25c.48-2.51,1.28-5,1.21-7.52,1-1.59,2-2.31,2.89-2.48a2.36,2.36,0,0,1,1.6.26c.91.56.71,1.52.3,3.24-.53,2-1.09,4-1.58,6s-1.05,5.43,1.5,7.68a7.77,7.77,0,0,0,8.27,1.1,9.93,9.93,0,0,0,2.25-1.45l.14-.12a7.57,7.57,0,0,0,5.49,2.24,7.77,7.77,0,0,0,3.59-.87,8.62,8.62,0,0,0,3.63-3.83l.14-.25.07.27c.32,1.19.57,2.18.79,3.12a1,1,0,0,0,1,.83,1.3,1.3,0,0,0,1-.48,1.1,1.1,0,0,0,.2-1c-.52-2.26-1.1-4.44-1.6-6.27V249l.07-.22,0-.09h.09a4.76,4.76,0,0,0,.86.07h.08a13.51,13.51,0,0,0,2.87-.44h0l0,0,.45.2a5.11,5.11,0,0,1,.47.21,6.39,6.39,0,0,1,2.45,2.78l0,.07.17.29a10.77,10.77,0,0,0,3.25,3.56,5.42,5.42,0,0,0,2.81.9H603a5.81,5.81,0,0,0,3.77-1.63c.15-.13.3-.31.44-.46a1.35,1.35,0,0,0,.3-1M574.65,252a8.15,8.15,0,0,1-.64-4.56c.3-1.63,2.37-2.39,2.33.07a7.56,7.56,0,0,1-1.69,4.49m15-19.14v.19a54.84,54.84,0,0,1-1.33,9.51c-.09.46-.19.93-.28,1.4l-.09.47-.25-.91c-.27-1-.57-1.95-.87-2.9a49,49,0,0,1-1.41-5.22c0-.1,0-.2-.07-.3s-.06-.21-.08-.31l-.06-.29c-.15-.83-.3-1.6-.4-2.4a10.83,10.83,0,0,1-.08-2.59,3.37,3.37,0,0,1,.8-1.95,2.46,2.46,0,0,1,1.69-.66,2.17,2.17,0,0,1,1.34.49c1.12.92,1.17,3,1.09,5.47M592.92,246l-.24.06a12.2,12.2,0,0,1-2.47.42H590l0-.14c.34-1.31.62-2.71.87-4.27V242l0,0a12.29,12.29,0,0,1,2.32-1.47,6.92,6.92,0,0,1,2.22-.67c1.32-.19,2.2.17,2.5,1a3.7,3.7,0,0,1-1.41,3.65,8.91,8.91,0,0,1-3.6,1.49"/><path class="cls-1" d="M523.06,251.21c4.22,1.39,8-2.24,8.44-6.35a15.26,15.26,0,0,0,0-3.82c-.19-1.27-.34-2.54-.51-3.87-.28-2.25-.41-4.47-.77-6.68-.22-1.34-1.45-1.75-2.27-.91-.06.07-.13.12-.19.19-.6.72-.2,2.88,0,4.38.15,1,.35,2.42.45,3.46-3.59.38-7.19,1.86-8.48,5.5-1.13,3.19-.13,6.95,3.34,8.1m-1-6.74c.72-3,3.74-4,6.53-4.28.64,3.1.85,7-2.57,8.38a2.7,2.7,0,0,1-3.1-.46,4.12,4.12,0,0,1-.86-3.64"/><path class="cls-1" d="M538.91,236c-.11-2.14-.37-4.28-.48-6.42a1.33,1.33,0,0,0-2.61-.23c-.22.43.36,5,.45,6.77a1.32,1.32,0,0,0,2.64-.12"/><path class="cls-1" d="M484.52,252a7.13,7.13,0,0,0,4.7,1.48,7.83,7.83,0,0,0,4.29-1.64,21.52,21.52,0,0,0,4.13-4.13c.71-.82,1.22-1.47,2-2.55.66-.91,1.43-1.83,2.11-2.72.54-.7,1-1.23,1.57-1.92s1.26-1.83,2.17-1.46c.39.17.16,1.05.15,2.28a3.4,3.4,0,0,0,.49,2.28,2.55,2.55,0,0,0,2.4,1,3.54,3.54,0,0,0,2.33-1.24c1-1.09,2.36-4,3.37-3.58.61.26.38.72-.07,2-.52,1.5-.92,2.7-1.34,3.83s-.7,2-1.36,3.72a6.2,6.2,0,0,0-2.93-.7c-1.36,0-3,.33-3.85,1.59a3.59,3.59,0,0,0,.16,4.36c2,2.5,7,1.92,8.29-1.15.72.6,1.67,1.36,2.39,2,2.6,2.21,5.43,4.07,9,3.51a16.07,16.07,0,0,0,4.55-1.53,6.69,6.69,0,0,0,2.7-2.07c.85-1.48-.67-2.47-2.3-1.3l-2.26,1.35c-.52.25-1.55.64-1.58.65a7.35,7.35,0,0,1-6.45-.94,28.5,28.5,0,0,1-3-2.31c-.82-.67-1.78-1.48-2.56-2.09.79-2.25,1-2.94,1.74-5a30.14,30.14,0,0,0,1.61-5.54,2.57,2.57,0,0,0-2.43-2.84c-2-.1-3,1.11-4.18,2.73-.69.88-1.34,2.25-2,2.09s-.41-.75-.36-1.14.11-1,.15-1.46c.15-1.59-.23-2.94-2.23-3.24-1.79-.27-3.08.87-4.28,2.06a53.82,53.82,0,0,0-4.29,5.29c-1.15,1.49-2.15,2.68-3.34,4-1.53,1.63-2.77,3.46-5.75,3.08a5.27,5.27,0,0,1-4.21-4s0,0,0,0a30,30,0,0,0,4.66-1.75,9.1,9.1,0,0,0,4.33-4.11c1.54-3.6-.71-5.85-4.5-5.69-3.54.15-6.6,4-7.13,7-.69,4,0,7.51,3.06,9.92m25.37,1.59c-.88.31-3.05.19-3.21-.93-.34-2.44,2.42-1.75,3.1-1.55s1.34.81,1.28,1.32-.67,1-1.17,1.16m-25.43-12.23a7.24,7.24,0,0,1,3.33-3.43c1.1-.49,2.27-.51,2.84.42.48.77,0,1.64-.5,2.2a8.17,8.17,0,0,1-1.88,1.56,15.39,15.39,0,0,1-4.39,1.89,7.54,7.54,0,0,1,.6-2.64"/><path class="cls-1" d="M478.75,250.27a7.13,7.13,0,0,0,.39-5,5.63,5.63,0,0,0-3.36-3.83,7.35,7.35,0,0,0-5.22-.22,3.7,3.7,0,0,0-.66.33,12.39,12.39,0,0,0,.43-3.16c0-3-.48-4.65-1.89-6.58-2.84-3.87-8.55-3.22-11.47.12a13.88,13.88,0,0,0-2.87,6,28.42,28.42,0,0,0-.8,7.63c0,2.91.25,5.69.46,9.06.08,1.32.31,6.69.39,7.06a1.29,1.29,0,0,0,1.92.9c1.95-1,3.83-1.68,5.8-2.46,2.34-.93,4.86-1.86,7.19-2.79,3.89-1.56,7.59-3.36,9.69-7.09m-22,9c0-1.12-.29-3.33-.35-4.3-.09-1.38-.45-4.3-.45-7.16a54.46,54.46,0,0,1,.2-5.86,17.92,17.92,0,0,1,1.26-5.09c1.22-3.33,4.93-7,8.38-4.08,1.57,1.34,2,3.41,1.85,5.56-.05.94-.16,1.83-.3,2.78a16,16,0,0,1-1.13,3.64c-.46,1-.06,2.62,1.31,2.15a2.15,2.15,0,0,0,.46-.21h0c.87-.53,1.22-1.46,2.07-2.11a4.76,4.76,0,0,1,4.8-.69c1.51.62,1.9,2.17,1.87,3.64,0,1.69-1.35,2.95-2.56,4A18,18,0,0,1,470,254c-2,.86-3.6,1.51-5.52,2.24-2.58,1-5.06,1.86-7.72,3"/></g></svg>